<svg width="132" height="117" viewBox="0 0 132 117" fill="none" xmlns="http://www.w3.org/2000/svg">
<rect width="132" height="117" rx="24" fill="#151A30"/>
<path d="M18.7386 88V29.8182H40.5568C45.0265 29.8182 48.7765 30.5947 51.8068 32.1477C54.8561 33.7008 57.1572 35.8788 58.7102 38.6818C60.2822 41.4659 61.0682 44.714 61.0682 48.4261C61.0682 52.1572 60.2727 55.3958 58.6818 58.142C57.1098 60.8693 54.7898 62.9811 51.7216 64.4773C48.6534 65.9545 44.8845 66.6932 40.4148 66.6932H24.875V57.9432H38.9943C41.608 57.9432 43.7481 57.5833 45.4148 56.8636C47.0814 56.125 48.3125 55.0549 49.108 53.6534C49.9223 52.233 50.3295 50.4905 50.3295 48.4261C50.3295 46.3617 49.9223 44.6004 49.108 43.142C48.2936 41.6648 47.053 40.5473 45.3864 39.7898C43.7197 39.0133 41.5701 38.625 38.9375 38.625H29.2784V88H18.7386ZM48.7955 61.6364L63.1989 88H51.4375L37.2898 61.6364H48.7955Z" fill="white"/>
<path d="M117.54 49.4489H106.915C106.612 47.7064 106.053 46.1629 105.239 44.8182C104.424 43.4545 103.411 42.2992 102.199 41.3523C100.987 40.4053 99.6042 39.6951 98.0511 39.2216C96.517 38.7292 94.8598 38.483 93.0795 38.483C89.9167 38.483 87.1136 39.2784 84.6705 40.8693C82.2273 42.4413 80.3144 44.7519 78.9318 47.8011C77.5492 50.8314 76.858 54.5341 76.858 58.9091C76.858 63.3598 77.5492 67.1098 78.9318 70.1591C80.3333 73.1894 82.2462 75.4811 84.6705 77.0341C87.1136 78.5682 89.9072 79.3352 93.0511 79.3352C94.7936 79.3352 96.4223 79.108 97.9375 78.6534C99.4716 78.1799 100.845 77.4886 102.057 76.5795C103.288 75.6705 104.32 74.553 105.153 73.2273C106.006 71.9015 106.593 70.3864 106.915 68.6818L117.54 68.7386C117.142 71.5038 116.28 74.0985 114.955 76.5227C113.648 78.947 111.934 81.0871 109.812 82.9432C107.691 84.7803 105.21 86.2197 102.369 87.2614C99.5284 88.2841 96.375 88.7955 92.9091 88.7955C87.7955 88.7955 83.2311 87.6117 79.2159 85.2443C75.2008 82.8769 72.0379 79.4583 69.7273 74.9886C67.4167 70.5189 66.2614 65.1591 66.2614 58.9091C66.2614 52.6402 67.4261 47.2803 69.7557 42.8295C72.0852 38.3598 75.2576 34.9413 79.2727 32.5739C83.2879 30.2064 87.8333 29.0227 92.9091 29.0227C96.1477 29.0227 99.1591 29.4773 101.943 30.3864C104.727 31.2955 107.208 32.6307 109.386 34.392C111.564 36.1345 113.354 38.2746 114.756 40.8125C116.176 43.3314 117.104 46.2102 117.54 49.4489Z" fill="white"/>
</svg>
